<?xml version="1.0" standalone="no"?>
<!DOCTYPE svg PUBLIC "-//W3C//DTD SVG 20010904//EN"
 "http://www.w3.org/TR/2001/REC-SVG-20010904/DTD/svg10.dtd">
<svg version="1.0" xmlns="http://www.w3.org/2000/svg"
 width="334.000000pt" height="354.000000pt" viewBox="0 0 334.000000 354.000000"
 preserveAspectRatio="xMidYMid meet">

<g transform="translate(0.000000,354.000000) scale(0.100000,-0.100000)"
fill="#000000" stroke="none">
<path d="M1495 3150 c-107 -17 -215 -43 -210 -50 3 -5 -4 -6 -15 -3 -12 3 -20
0 -20 -6 0 -7 -4 -10 -9 -7 -11 7 -130 -37 -183 -66 -20 -12 -34 -26 -31 -31
3 -6 1 -7 -6 -3 -11 7 -109 -46 -123 -68 -4 -6 -8 -7 -8 -3 0 8 -76 -47 -90
-64 -3 -3 -15 -11 -28 -18 -12 -7 -20 -17 -16 -23 4 -6 3 -8 -4 -4 -10 6 -129
-118 -194 -204 -58 -76 -120 -188 -112 -201 4 -7 3 -9 -3 -6 -6 4 -23 -23 -40
-61 -47 -105 -55 -130 -47 -143 4 -7 3 -10 -3 -6 -12 7 -34 -73 -58 -208 -18
-102 -13 -350 9 -460 22 -109 57 -225 68 -225 5 0 7 -4 4 -8 -2 -4 4 -28 15
-52 11 -25 20 -46 20 -47 -2 -8 59 -110 115 -193 94 -142 216 -263 374 -372
84 -59 128 -80 142 -72 7 4 8 3 4 -4 -4 -7 3 -14 19 -18 14 -3 25 -10 25 -14
0 -6 24 -16 60 -25 3 0 14 -6 26 -12 34 -19 195 -61 295 -78 118 -19 289 -19
396 0 105 18 241 53 268 68 11 6 23 12 28 13 4 1 10 3 15 4 4 1 10 2 15 1 4 0
7 4 7 11 0 6 3 9 6 5 9 -9 234 108 254 133 3 3 21 17 40 30 61 42 190 162 184
171 -3 5 -2 8 3 7 4 -2 8 -1 8 2 1 3 12 17 25 31 41 43 92 107 88 112 -2 2 5
11 14 21 30 29 90 145 82 157 -4 7 -3 9 3 6 5 -3 17 7 27 24 9 16 14 29 10 29
-3 0 -2 6 3 13 14 17 54 127 47 127 -4 0 -2 6 4 13 6 7 21 60 33 117 29 138
31 398 5 538 -10 50 -22 95 -27 98 -5 3 -7 9 -4 14 5 8 -43 150 -54 160 -3 3
-7 12 -9 20 -8 42 -104 210 -124 218 -4 2 -6 7 -3 11 2 4 -11 25 -30 45 -18
20 -33 38 -32 39 1 1 -22 30 -51 65 -28 35 -52 60 -52 57 0 -4 -12 8 -26 25
-16 18 -33 29 -41 26 -8 -4 -11 -1 -8 5 4 6 -1 17 -11 25 -56 43 -249 167
-281 180 -21 9 -56 24 -78 34 -46 22 -153 60 -163 58 -4 -1 -14 2 -22 5 -83
34 -398 56 -525 37z m320 -80 c189 -22 398 -93 530 -179 33 -22 63 -37 67 -35
5 3 8 0 8 -6 0 -6 5 -8 10 -5 6 4 9 2 8 -3 -4 -12 88 -82 97 -74 4 4 6 2 4 -3
-3 -11 142 -161 153 -157 4 1 5 -4 2 -11 -2 -7 10 -29 28 -49 18 -20 34 -41
35 -47 4 -18 60 -101 65 -96 3 3 5 -1 5 -7 0 -7 12 -40 28 -73 40 -85 81 -211
95 -286 7 -35 14 -71 17 -79 3 -8 8 -76 10 -151 4 -109 0 -159 -17 -255 -22
-123 -65 -264 -107 -346 -13 -27 -21 -48 -18 -48 3 0 -3 -10 -15 -22 -19 -21
-24 -33 -21 -51 1 -5 -2 -6 -7 -3 -4 2 -17 -12 -27 -32 -11 -20 -22 -39 -25
-42 -22 -19 -59 -78 -52 -84 4 -4 2 -6 -3 -4 -6 1 -49 -35 -96 -82 -46 -47
-119 -108 -161 -136 -42 -29 -74 -55 -70 -60 4 -4 2 -4 -5 0 -7 4 -21 -2 -33
-14 -11 -11 -20 -18 -20 -15 0 3 -17 -3 -38 -14 -83 -42 -225 -91 -323 -111
-187 -39 -440 -34 -584 10 -16 5 -41 11 -55 13 -14 2 -38 9 -55 16 -165 68
-264 122 -389 215 -37 28 -73 50 -78 48 -5 -1 -7 1 -4 6 2 4 -19 33 -47 63
-122 130 -255 343 -282 452 -4 15 -12 27 -18 27 -6 0 -8 3 -4 6 3 3 2 17 -4
30 -5 14 -18 71 -30 127 -32 152 -33 325 -5 522 8 55 36 143 76 241 22 53 37
101 33 107 -3 6 -2 7 4 4 11 -7 56 66 48 77 -3 3 -2 4 2 1 10 -8 44 55 37 67
-4 6 -3 8 3 5 11 -7 120 132 116 145 -2 5 0 7 5 5 13 -4 122 96 115 106 -3 6
-1 7 5 3 5 -3 23 4 39 17 43 35 183 127 194 127 6 0 7 5 3 12 -4 7 -3 8 4 4 7
-4 29 2 50 13 33 17 57 27 72 29 3 1 23 9 45 18 55 23 142 43 255 59 119 16
210 18 325 5z"/>
<path d="M1495 2963 c-81 -10 -255 -63 -281 -84 -8 -6 -14 -9 -14 -5 0 11
-189 -92 -232 -126 -54 -44 -247 -232 -228 -223 8 4 3 -3 -11 -16 -32 -29 -92
-117 -92 -135 0 -7 -4 -11 -7 -9 -8 5 -45 -73 -86 -177 l-23 -58 45 0 c30 0
44 4 44 13 0 20 86 192 127 254 20 30 59 80 86 110 30 32 51 65 53 81 9 103
65 151 178 157 65 3 119 22 109 38 -3 6 -2 7 4 4 5 -3 48 9 95 28 275 109 637
97 888 -30 26 -13 50 -21 54 -18 3 4 6 2 6 -3 0 -6 19 -21 43 -34 23 -13 61
-39 85 -58 23 -19 42 -31 42 -27 0 3 12 -7 26 -24 14 -17 30 -28 35 -25 5 3 8
2 7 -3 -2 -4 12 -24 31 -43 18 -19 45 -50 58 -67 14 -18 28 -31 32 -28 4 2 8
-2 8 -9 0 -7 10 -28 23 -47 13 -19 31 -45 40 -59 20 -32 90 -186 90 -200 0 -5
20 -10 45 -10 l45 0 -19 48 c-56 141 -101 221 -177 322 -51 67 -191 206 -204
203 -6 -2 -10 1 -10 6 0 16 -99 83 -111 75 -7 -4 -9 -3 -6 3 8 14 -142 90
-165 85 -5 -1 -8 2 -8 8 0 9 -75 35 -97 33 -7 0 -13 3 -13 7 0 8 -23 14 -155
39 -48 9 -298 12 -360 4z"/>
<path d="M1508 2772 c-48 -9 -90 -20 -94 -24 -4 -4 118 -9 270 -10 152 -2 276
0 276 3 0 12 -185 42 -275 45 -55 1 -124 -4 -177 -14z"/>
<path d="M1970 2736 c0 -2 7 -7 16 -10 8 -3 12 -2 9 4 -6 10 -25 14 -25 6z"/>
<path d="M970 2390 l0 -260 155 0 154 0 3 138 3 137 215 3 c118 1 246 -2 284
-7 142 -20 203 -81 208 -208 l3 -63 158 0 c179 0 162 -12 157 105 -6 167 -112
320 -258 375 -91 35 -173 40 -634 40 l-448 0 0 -260z"/>
<path d="M2248 2592 c9 -10 19 -17 21 -15 5 3 84 -115 87 -129 1 -5 2 -13 3
-19 0 -5 5 -8 9 -5 4 2 8 -3 9 -13 1 -16 104 -178 121 -191 4 -3 8 -12 10 -20
1 -8 8 -27 14 -43 9 -24 15 -27 53 -25 l43 1 -29 65 c-42 94 -110 192 -197
283 -41 44 -77 78 -79 76 -2 -3 -18 9 -34 24 -34 32 -60 40 -31 11z"/>
<path d="M858 2381 c-32 -37 -48 -68 -41 -76 5 -4 2 -5 -4 -1 -12 6 -15 0 -12
-20 0 -4 -4 -10 -9 -13 -10 -6 -72 -123 -72 -135 0 -3 18 -6 40 -6 39 0 40 1
77 73 28 55 37 86 40 135 2 34 2 62 0 62 -1 0 -10 -9 -19 -19z"/>
<path d="M2243 2053 l-43 -4 0 -280 0 -279 50 0 50 0 0 285 c0 157 -3 284 -7
283 -5 -1 -27 -3 -50 -5z"/>
<path d="M520 1770 l0 -280 165 0 c186 0 218 8 255 60 47 66 35 181 -23 211
-12 6 -24 13 -26 15 -3 3 9 18 25 35 26 27 29 37 29 99 0 54 -4 73 -20 90 -38
43 -74 50 -245 50 l-160 0 0 -280z m287 199 c36 -13 43 -25 43 -75 0 -64 -22
-77 -136 -82 l-94 -4 0 86 0 86 79 0 c44 0 92 -5 108 -11z m12 -240 c38 -13
51 -35 51 -87 0 -63 -22 -76 -146 -80 l-104 -4 0 91 0 91 84 0 c45 0 97 -5
115 -11z"/>
<path d="M1060 1770 l0 -280 50 0 50 0 0 280 0 280 -50 0 -50 0 0 -280z"/>
<path d="M1230 2010 l0 -40 90 0 90 0 0 -240 0 -240 45 0 c40 0 45 3 45 23 1
12 0 120 0 240 l-1 217 91 0 90 0 0 40 0 40 -225 0 -225 0 0 -40z"/>
<path d="M1750 1770 l0 -280 50 0 50 0 0 125 c0 113 2 125 18 123 9 -1 56 0
105 0 l87 2 0 35 0 35 -105 0 -105 0 0 80 0 80 140 0 140 0 0 40 0 40 -190 0
-190 0 0 -280z"/>
<path d="M2370 2010 l0 -40 90 0 90 0 0 -240 0 -240 45 0 45 0 0 240 0 240 90
0 90 0 0 40 0 40 -225 0 -225 0 0 -40z"/>
<path d="M541 1358 c35 -90 90 -199 110 -219 10 -10 17 -19 14 -19 -3 0 7 -18
21 -40 15 -22 31 -37 37 -33 6 3 7 1 3 -5 -6 -10 81 -117 95 -117 3 0 18 -14
32 -31 40 -47 164 -137 252 -184 95 -50 204 -92 216 -84 5 3 9 1 9 -4 0 -5 12
-12 28 -15 15 -3 63 -12 107 -21 184 -38 433 -14 623 58 143 55 191 81 307
169 119 91 308 307 308 354 0 7 4 13 8 13 14 0 40 60 33 72 -4 6 -3 8 3 5 6
-4 13 1 16 11 3 9 16 45 30 80 l26 62 -44 0 c-41 0 -44 -2 -55 -37 -7 -21 -30
-73 -51 -117 -124 -250 -367 -459 -641 -550 -136 -46 -238 -59 -403 -53 -188
7 -306 37 -467 118 -48 24 -70 30 -101 26 -47 -6 -111 18 -146 57 -14 14 -21
26 -17 26 3 0 0 12 -7 28 -7 15 -12 35 -9 45 2 12 -14 37 -45 70 -27 29 -65
75 -85 102 -40 56 -121 215 -132 258 -6 24 -11 27 -51 27 l-45 0 21 -52z"/>
<path d="M727 1398 c4 -7 8 -15 8 -18 5 -35 94 -193 126 -223 19 -17 19 -16
19 46 0 34 -4 67 -9 73 -5 5 -23 37 -41 72 -31 60 -33 62 -72 62 -29 0 -37 -3
-31 -12z"/>
<path d="M970 1150 l0 -261 503 3 c496 3 503 3 566 26 78 28 166 87 216 144
68 78 115 205 115 309 l0 39 -155 0 c-85 0 -155 -3 -155 -7 0 -5 -5 -36 -10
-70 -15 -89 -40 -127 -108 -160 l-57 -28 -302 -3 -303 -3 0 135 0 136 -155 0
-155 0 0 -260z"/>
<path d="M2532 1398 c-7 -7 -12 -17 -12 -23 0 -6 -13 -31 -28 -56 -16 -24 -28
-54 -27 -66 1 -12 -2 -20 -7 -17 -8 5 -18 -11 -22 -38 -1 -7 -5 -19 -9 -25 -5
-7 -6 -13 -3 -13 10 0 -46 -101 -76 -138 -17 -20 6 1 51 46 88 91 144 169 134
185 -3 6 -2 7 4 4 7 -5 83 130 83 148 0 11 -77 4 -88 -7z"/>
<path d="M1405 790 c107 -28 153 -34 265 -33 74 0 151 7 190 16 80 19 79 19
-240 22 -135 1 -231 -1 -215 -5z"/>
</g>
</svg>
